<?xml version="1.0" standalone="no"?>
<!DOCTYPE svg PUBLIC "-//W3C//DTD SVG 20010904//EN"
 "http://www.w3.org/TR/2001/REC-SVG-20010904/DTD/svg10.dtd">
<svg version="1.0" xmlns="http://www.w3.org/2000/svg"
 width="460.000000pt" height="460.000000pt" viewBox="0 0 460.000000 460.000000"
 preserveAspectRatio="xMidYMid meet">
<metadata>
Created by potrace 1.14, written by Peter Selinger 2001-2017
</metadata>
<g transform="translate(0.000000,460.000000) scale(0.100000,-0.100000)"
fill="#000000" stroke="none">
<path d="M1655 3661 c-7 -12 9 -28 53 -50 24 -12 50 -20 58 -17 8 3 14 -1 14
-8 0 -7 23 -25 50 -40 40 -22 49 -31 40 -41 -8 -10 -6 -24 9 -54 12 -22 25
-42 31 -46 5 -3 10 -15 10 -25 0 -11 14 -35 30 -53 28 -33 30 -39 30 -120 0
-99 -3 -102 -101 -98 -50 2 -61 -2 -100 -31 -73 -56 -131 -155 -146 -252 -3
-16 -16 -47 -31 -70 -58 -93 -79 -123 -115 -173 -47 -63 -67 -160 -48 -231 14
-52 80 -128 144 -168 26 -16 62 -41 79 -56 17 -16 39 -28 49 -28 10 0 30 -11
46 -24 15 -13 42 -30 58 -39 80 -41 90 -99 18 -110 -21 -4 -55 -7 -75 -7 -20
0 -49 -5 -64 -10 -15 -6 -31 -7 -36 -2 -4 4 -38 5 -76 1 -37 -4 -112 -8 -167
-9 -55 -1 -165 -8 -245 -16 -80 -8 -179 -14 -220 -14 -41 0 -85 -3 -97 -6 -30
-8 -40 -42 -19 -63 23 -23 193 -29 429 -17 159 8 190 8 197 -4 11 -18 -2 -34
-40 -50 -16 -7 -28 -17 -27 -24 1 -6 -9 -11 -22 -11 -31 0 -66 -45 -56 -74 3
-11 14 -21 24 -21 34 0 180 40 255 70 41 17 78 30 83 30 4 0 54 18 111 40 57
21 110 36 117 34 23 -9 26 -36 9 -94 -9 -30 -20 -98 -24 -150 -8 -107 -18
-149 -61 -255 -16 -40 -29 -84 -29 -98 0 -13 -8 -35 -18 -48 -35 -48 -45 -75
-33 -97 6 -11 10 -54 10 -95 -1 -86 27 -177 92 -293 34 -63 41 -87 55 -190 9
-66 16 -194 17 -286 l2 -168 473 0 472 0 0 40 0 40 -42 1 c-63 0 -137 14 -151
28 -6 6 -14 37 -18 69 -4 31 -10 82 -14 112 -4 39 -1 84 13 152 22 104 45 146
99 180 51 31 56 47 44 151 -27 245 -24 271 37 269 18 0 34 4 38 9 10 17 13
103 4 164 -27 186 -45 262 -116 474 -37 109 -46 168 -31 191 7 12 18 18 29 14
10 -3 21 2 27 15 6 11 25 22 43 26 63 12 214 56 273 80 33 13 101 30 150 39
50 9 100 22 113 28 25 13 29 45 9 72 -13 17 -21 16 -168 -18 -85 -20 -182 -46
-215 -59 -57 -23 -112 -36 -164 -41 -15 -2 -32 5 -43 17 -27 32 -4 55 127 122
64 33 143 79 176 103 34 23 64 42 69 42 5 0 14 7 21 15 11 13 10 20 -1 41 -18
35 -50 28 -163 -40 -99 -59 -233 -126 -253 -126 -31 0 -92 43 -102 72 -16 46
-13 93 7 111 19 17 29 14 88 -23 19 -12 30 -10 85 9 86 31 95 41 102 109 3 31
21 114 41 183 32 116 35 140 39 298 4 125 1 188 -9 229 -7 31 -13 69 -14 84 0
43 -19 74 -56 92 -46 21 -70 20 -94 -4 -11 -11 -26 -20 -32 -20 -7 0 -80 68
-163 151 -82 83 -159 154 -170 159 -24 9 -824 10 -830 1z m625 -51 c0 -5 -2
-10 -4 -10 -2 0 -12 -3 -22 -7 -16 -6 -17 -5 -4 10 17 19 30 22 30 7z m-100
-44 c0 -3 -4 -8 -10 -11 -5 -3 -10 -1 -10 4 0 6 5 11 10 11 6 0 10 -2 10 -4z
m335 -15 c-3 -6 -11 -8 -17 -5 -6 4 -5 9 3 15 16 10 23 4 14 -10z m-602 -55
c17 -17 67 -24 86 -11 10 6 13 4 9 -6 -3 -9 9 -23 33 -39 45 -28 50 -54 18
-94 -39 -49 -66 -31 -120 79 -13 28 -30 58 -38 68 -17 20 -8 23 12 3z m327 4
c0 -5 -4 -10 -10 -10 -5 0 -10 5 -10 10 0 6 5 10 10 10 6 0 10 -4 10 -10z m50
-9 c0 -16 -13 -19 -26 -6 -19 19 -17 24 6 18 11 -3 20 -9 20 -12z m160 -21 c0
-5 -4 -10 -10 -10 -5 0 -10 5 -10 10 0 6 5 10 10 10 6 0 10 -4 10 -10z m-260
-70 c0 -5 -5 -10 -11 -10 -5 0 -7 5 -4 10 3 6 8 10 11 10 2 0 4 -4 4 -10z
m770 -44 c0 -11 -19 -15 -25 -6 -3 5 1 10 9 10 9 0 16 -2 16 -4z m-814 -33
c-10 -10 -19 5 -10 18 6 11 8 11 12 0 2 -7 1 -15 -2 -18z m464 17 c0 -5 -4
-10 -10 -10 -5 0 -10 5 -10 10 0 6 5 10 10 10 6 0 10 -4 10 -10z m190 0 c0 -5
-4 -10 -10 -10 -5 0 -10 5 -10 10 0 6 5 10 10 10 6 0 10 -4 10 -10z m-410
-100 c0 -5 -4 -10 -10 -10 -5 0 -10 5 -10 10 0 6 5 10 10 10 6 0 10 -4 10 -10z
m292 -12 c39 -11 67 -43 51 -58 -13 -11 -73 -30 -99 -30 -18 0 -23 7 -29 40
-11 62 2 71 77 48z m-322 -2 c0 -3 -4 -8 -10 -11 -5 -3 -10 -1 -10 4 0 6 5 11
10 11 6 0 10 -2 10 -4z m40 -56 c0 -5 -4 -10 -10 -10 -5 0 -10 5 -10 10 0 6 5
10 10 10 6 0 10 -4 10 -10z m-345 -10 c3 -5 1 -10 -4 -10 -6 0 -11 5 -11 10 0
6 2 10 4 10 3 0 8 -4 11 -10z m725 -109 c0 -71 -4 -93 -18 -112 -19 -23 -49
-22 -56 3 -2 7 -9 33 -16 57 -9 33 -18 46 -40 54 -31 12 -46 35 -32 49 4 4 32
12 62 18 29 6 56 12 58 15 3 3 14 5 24 5 16 0 18 -9 18 -89z m-610 -211 c0 -5
-4 -10 -10 -10 -5 0 -10 5 -10 10 0 6 5 10 10 10 6 0 10 -4 10 -10z m-480 -16
c0 -8 -4 -12 -10 -9 -5 3 -10 10 -10 16 0 5 5 9 10 9 6 0 10 -7 10 -16z m450
-74 c0 -5 -4 -10 -10 -10 -5 0 -10 5 -10 10 0 6 5 10 10 10 6 0 10 -4 10 -10z
m564 -26 c18 -7 21 -32 6 -54 -9 -13 -11 -13 -20 0 -10 15 -14 60 -6 60 2 0
11 -3 20 -6z m-816 -196 c48 -73 65 -121 57 -166 -7 -46 -26 -56 -81 -41 -58
16 -126 126 -110 176 7 20 74 72 93 73 7 0 25 -19 41 -42z m-338 -119 c0 -5
-7 -9 -15 -9 -15 0 -20 12 -9 23 8 8 24 -1 24 -14z m240 -105 c0 -3 -7 -12
-15 -20 -16 -17 -18 -14 -9 10 6 15 24 23 24 10z m845 -74 c3 -5 1 -10 -4 -10
-6 0 -11 5 -11 10 0 6 2 10 4 10 3 0 8 -4 11 -10z m-885 -10 c0 -5 -4 -10 -10
-10 -5 0 -10 5 -10 10 0 6 5 10 10 10 6 0 10 -4 10 -10z m570 0 c0 -5 -2 -10
-4 -10 -3 0 -8 5 -11 10 -3 6 -1 10 4 10 6 0 11 -4 11 -10z m-500 -10 c0 -5
-4 -10 -10 -10 -5 0 -10 5 -10 10 0 6 5 10 10 10 6 0 10 -4 10 -10z m-105 -40
c3 -5 1 -10 -4 -10 -6 0 -11 5 -11 10 0 6 2 10 4 10 3 0 8 -4 11 -10z m475 -5
c0 -8 -4 -15 -10 -15 -5 0 -10 7 -10 15 0 8 5 15 10 15 6 0 10 -7 10 -15z
m-120 -65 c0 -5 -7 -10 -16 -10 -8 0 -12 5 -9 10 3 6 10 10 16 10 5 0 9 -4 9
-10z m50 -40 c0 -5 -4 -10 -10 -10 -5 0 -10 5 -10 10 0 6 5 10 10 10 6 0 10
-4 10 -10z m154 -141 c-3 -5 -10 -7 -15 -3 -5 3 -7 10 -3 15 3 5 10 7 15 3 5
-3 7 -10 3 -15z m361 1 c3 -5 1 -10 -4 -10 -6 0 -11 5 -11 10 0 6 2 10 4 10 3
0 8 -4 11 -10z m-665 -10 c0 -5 -2 -10 -4 -10 -3 0 -8 5 -11 10 -3 6 -1 10 4
10 6 0 11 -4 11 -10z m470 -10 c0 -5 -4 -10 -10 -10 -5 0 -10 5 -10 10 0 6 5
10 10 10 6 0 10 -4 10 -10z m-855 -50 c3 -5 1 -10 -4 -10 -6 0 -11 5 -11 10 0
6 2 10 4 10 3 0 8 -4 11 -10z m710 -50 c3 -5 1 -10 -4 -10 -6 0 -11 5 -11 10
0 6 2 10 4 10 3 0 8 -4 11 -10z m395 -104 c0 -2 -9 -6 -20 -9 -11 -3 -20 -1
-20 4 0 5 9 9 20 9 11 0 20 -2 20 -4z m-735 -296 c3 -5 1 -10 -4 -10 -6 0 -11
5 -11 10 0 6 2 10 4 10 3 0 8 -4 11 -10z m655 -30 c0 -5 -7 -10 -16 -10 -8 0
-12 5 -9 10 3 6 10 10 16 10 5 0 9 -4 9 -10z m-260 -144 c0 -3 -4 -8 -10 -11
-5 -3 -10 -1 -10 4 0 6 5 11 10 11 6 0 10 -2 10 -4z m370 -6 c0 -5 -4 -10 -10
-10 -5 0 -10 5 -10 10 0 6 5 10 10 10 6 0 10 -4 10 -10z m-555 -30 c3 -5 1
-10 -4 -10 -6 0 -11 5 -11 10 0 6 2 10 4 10 3 0 8 -4 11 -10z m-305 -40 c0 -5
-2 -10 -4 -10 -3 0 -8 5 -11 10 -3 6 -1 10 4 10 6 0 11 -4 11 -10z m560 -90
c0 -5 -4 -10 -10 -10 -5 0 -10 5 -10 10 0 6 5 10 10 10 6 0 10 -4 10 -10z
m200 -10 c0 -5 -4 -10 -10 -10 -5 0 -10 5 -10 10 0 6 5 10 10 10 6 0 10 -4 10
-10z m-100 -30 c0 -5 -4 -10 -10 -10 -5 0 -10 5 -10 10 0 6 5 10 10 10 6 0 10
-4 10 -10z m45 -140 c3 -5 1 -10 -4 -10 -6 0 -11 5 -11 10 0 6 2 10 4 10 3 0
8 -4 11 -10z m220 -210 c3 -6 -1 -7 -9 -4 -18 7 -21 14 -7 14 6 0 13 -4 16
-10z m-175 -14 c0 -3 -4 -8 -10 -11 -5 -3 -10 -1 -10 4 0 6 5 11 10 11 6 0 10
-2 10 -4z m-311 -65 c12 -16 21 -37 21 -48 0 -10 11 -85 25 -167 14 -82 27
-183 30 -224 5 -73 5 -74 -17 -67 -13 4 -45 12 -73 18 -27 6 -55 18 -62 26 -6
9 -15 45 -19 81 -4 36 -10 75 -15 87 -8 21 -3 65 27 228 19 102 44 122 83 66z
m129 -132 c-2 -6 -8 -10 -13 -10 -5 0 -11 4 -13 10 -2 6 4 11 13 11 9 0 15 -5
13 -11z m-338 -239 c0 -5 -4 -10 -10 -10 -5 0 -10 5 -10 10 0 6 5 10 10 10 6
0 10 -4 10 -10z"/>
</g>
</svg>
